<svg width="25" height="25" viewBox="0 0 25 25" fill="none" xmlns="http://www.w3.org/2000/svg">
<path d="M17.0667 18.4766C16.6581 18.4774 16.255 18.3821 15.89 18.1983C15.5179 18.0134 15.208 17.7237 14.9984 17.365C14.7756 16.9962 14.6601 16.5725 14.665 16.1417V8.85831C14.6652 8.77651 14.6486 8.69553 14.6162 8.62041C14.5838 8.54529 14.5363 8.47763 14.4767 8.42165C14.3892 8.33599 14.2786 8.27783 14.1584 8.25436C14.0382 8.23089 13.9138 8.24314 13.8005 8.28959C13.6872 8.33603 13.59 8.41465 13.5209 8.51572C13.4518 8.6168 13.4139 8.7359 13.4117 8.85831V16.1417C13.4177 16.4554 13.3558 16.7667 13.2304 17.0544C13.105 17.342 12.919 17.5992 12.685 17.8083C12.2144 18.2462 11.5927 18.485 10.95 18.475C10.6407 18.4834 10.3329 18.4289 10.0452 18.3148C9.7576 18.2007 9.49613 18.0294 9.2767 17.8112C9.05727 17.593 8.88444 17.3325 8.76869 17.0455C8.65295 16.7585 8.5967 16.451 8.60336 16.1417V8.85831C8.60389 8.77661 8.58759 8.69568 8.55548 8.62055C8.52336 8.54543 8.47612 8.47772 8.4167 8.42165C8.35071 8.35777 8.27223 8.30822 8.18619 8.2761C8.10015 8.24398 8.0084 8.22998 7.9167 8.23498C7.82493 8.22936 7.733 8.24307 7.64687 8.27523C7.56074 8.30738 7.48233 8.35727 7.41669 8.42165C7.35704 8.47763 7.30954 8.54529 7.27714 8.62041C7.24474 8.69553 7.22814 8.77651 7.22836 8.85831V18.4766H5.5217V8.85831C5.51484 8.54445 5.57627 8.23285 5.70174 7.94507C5.82721 7.6573 6.01372 7.40022 6.24836 7.19165C6.71859 6.75321 7.34053 6.51424 7.98336 6.52498C8.29255 6.51679 8.60019 6.57145 8.88763 6.68566C9.17507 6.79987 9.43634 6.97125 9.65559 7.18942C9.87485 7.40758 10.0475 7.66798 10.1632 7.95485C10.2788 8.24172 10.335 8.54908 10.3284 8.85831V16.1417C10.3277 16.2235 10.3442 16.3046 10.3766 16.3798C10.409 16.455 10.4567 16.5226 10.5167 16.5783C10.6538 16.6987 10.8301 16.765 11.0125 16.765C11.195 16.765 11.3712 16.6987 11.5084 16.5783C11.568 16.5223 11.6155 16.4547 11.6479 16.3796C11.6803 16.3044 11.6969 16.2235 11.6967 16.1417V8.85831C11.6883 8.54973 11.7431 8.24269 11.8577 7.95606C11.9724 7.66944 12.1445 7.40931 12.3634 7.19165C12.8166 6.76349 13.4165 6.52495 14.04 6.52495C14.6635 6.52495 15.2634 6.76349 15.7167 7.19165C15.9356 7.40931 16.1077 7.66944 16.2223 7.95606C16.337 8.24269 16.3918 8.54973 16.3834 8.85831V16.1417C16.3828 16.2234 16.3991 16.3043 16.4312 16.3794C16.4634 16.4545 16.5106 16.5222 16.57 16.5783C16.7072 16.6987 16.8834 16.765 17.0659 16.765C17.2483 16.765 17.4246 16.6987 17.5617 16.5783C17.6217 16.5226 17.6694 16.455 17.7018 16.3798C17.7342 16.3046 17.7507 16.2235 17.75 16.1417V6.52332H19.47V16.1417C19.474 16.5724 19.3586 16.9958 19.1367 17.365C18.927 17.7237 18.6171 18.0133 18.245 18.1983C17.8793 18.3818 17.4758 18.4771 17.0667 18.4766Z" fill="#1A1A1A"></path>
<path fill-rule="evenodd" clip-rule="evenodd" d="M12.5 23.3333C18.4831 23.3333 23.3333 18.4831 23.3333 12.5C23.3333 6.51692 18.4831 1.66667 12.5 1.66667C6.51692 1.66667 1.66667 6.51692 1.66667 12.5C1.66667 18.4831 6.51692 23.3333 12.5 23.3333ZM12.5 25C19.4036 25 25 19.4036 25 12.5C25 5.59644 19.4036 0 12.5 0C5.59644 0 0 5.59644 0 12.5C0 19.4036 5.59644 25 12.5 25Z" fill="#1A1A1A"></path>
</svg>
